<mxfile host="app.diagrams.net" agent="Mozilla/5.0 (Windows NT 10.0; Win64; x64) AppleWebKit/537.36 (KHTML, like Gecko) Chrome/126.0.0.0 Safari/537.36" version="26.0.11">
  <diagram name="第 1 页" id="fWrnHgL6nO_7qjxyEw86">
    <mxGraphModel dx="1434" dy="441" grid="0" gridSize="10" guides="1" tooltips="1" connect="1" arrows="1" fold="1" page="0" pageScale="1" pageWidth="827" pageHeight="1169" math="0" shadow="0">
      <root>
        <mxCell id="0" />
        <mxCell id="1" parent="0" />
        <mxCell id="ocFA7NBdoYoIx3zx9iRh-2" value="分页查询农事分享" style="text;html=1;align=center;verticalAlign=middle;whiteSpace=wrap;rounded=0;fontStyle=1;strokeWidth=0;fontSize=20;" vertex="1" parent="1">
          <mxGeometry x="278.5" y="423" width="165" height="30" as="geometry" />
        </mxCell>
        <mxCell id="ocFA7NBdoYoIx3zx9iRh-3" value="" style="rounded=1;whiteSpace=wrap;html=1;" vertex="1" parent="1">
          <mxGeometry x="185" y="544" width="328" height="182" as="geometry" />
        </mxCell>
        <mxCell id="ocFA7NBdoYoIx3zx9iRh-4" value="农事分享" style="text;html=1;align=center;verticalAlign=middle;whiteSpace=wrap;rounded=0;fontStyle=1;fontSize=17;" vertex="1" parent="1">
          <mxGeometry x="307.5" y="542" width="83" height="40" as="geometry" />
        </mxCell>
        <mxCell id="ocFA7NBdoYoIx3zx9iRh-5" value="评论" style="rounded=1;whiteSpace=wrap;html=1;fillColor=#dae8fc;strokeColor=#6c8ebf;" vertex="1" parent="1">
          <mxGeometry x="379" y="584" width="111" height="52" as="geometry" />
        </mxCell>
        <mxCell id="ocFA7NBdoYoIx3zx9iRh-6" value="点赞" style="rounded=1;whiteSpace=wrap;html=1;fillColor=#f8cecc;strokeColor=#b85450;" vertex="1" parent="1">
          <mxGeometry x="379" y="658" width="111" height="52" as="geometry" />
        </mxCell>
      </root>
    </mxGraphModel>
  </diagram>
</mxfile>
